# xmcd
#
# Track frame offsets:
#	150
#	24621
#	57932
#	84356
#	119916
#	146755
#	165775
#	189905
#	207325
#	228616
#	254548
#	271637
#	293208
#	318231
#
# Disc length: 4568 seconds
#
# Revision: 7
# Processed by: cddbd v1.5.2PL0 Copyright (c) Steve Scherf et al.
# Submitted via: EasyCDDAExtractor 16.0.6.1
#
DISCID=c611d60e
DTITLE=Eric Clapton - R-588 Pilgrim
DYEAR=1998
DGENRE=Blues
TTITLE0=My Father's Eyes
TTITLE1=River Of Tears
TTITLE2=Pilgrim
TTITLE3=Broken Hearted
TTITLE4=One Chance
TTITLE5=Circus
TTITLE6=Going Down Slow
TTITLE7=Fall Like Rain
TTITLE8=Born In Time
TTITLE9=Sick And Tired
TTITLE10=Needs His Woman
TTITLE11=She's Gone
TTITLE12=You Were There
TTITLE13=Inside Of Me
EXTD=
EXTT0=
EXTT1=
EXTT2=
EXTT3=
EXTT4=
EXTT5=
EXTT6=
EXTT7=
EXTT8=
EXTT9=
EXTT10=
EXTT11=
EXTT12=
EXTT13=
PLAYORDER=
